<svg viewBox="0 0 17 20" xmlns="http://www.w3.org/2000/svg">
	<path fill="#FFFFFF" d="M15.2314 9.86561L13.8996 9.0969C14.0334 8.37176 14.0334 7.62828 13.8996 6.90314L15.2314 6.13443C15.3835 6.04661 15.4541 5.86508 15.402 5.69739C15.0561 4.58358 14.4654 3.57733 13.693 2.74158C13.6352 2.679 13.5578 2.63794 13.4736 2.62514C13.3893 2.61234 13.3033 2.62856 13.2295 2.67114L11.8987 3.43974C11.3388 2.95999 10.6951 2.58781 10 2.34193V0.804926C10 0.629082 9.87772 0.477113 9.70616 0.438582C8.55866 0.180801 7.38544 0.193488 6.29306 0.438801C6.20989 0.457489 6.13557 0.503931 6.08231 0.570487C6.02905 0.637043 6.00003 0.719746 6.00003 0.804988V2.34196C5.30492 2.58785 4.66122 2.96003 4.10131 3.43977L2.77056 2.67118C2.69677 2.6286 2.6107 2.61237 2.52647 2.62517C2.44224 2.63797 2.36487 2.67903 2.30706 2.74161C1.53459 3.57736 0.943969 4.58361 0.598031 5.69743C0.545937 5.86514 0.616531 6.04668 0.768625 6.13446L2.10038 6.90318C1.96661 7.6283 1.96661 8.37177 2.10038 9.0969L0.768594 9.86561C0.6165 9.95343 0.545906 10.135 0.598 10.3026C0.943937 11.4165 1.53459 12.4227 2.30703 13.2585C2.36484 13.321 2.44221 13.3621 2.52644 13.3749C2.61067 13.3877 2.69674 13.3715 2.77053 13.3289L4.10128 12.5603C4.66118 13.0401 5.30489 13.4122 6 13.6581V15.1951C6 15.371 6.12228 15.5229 6.29384 15.5615C6.52846 15.6142 6.76415 15.6556 7 15.686V10.2913C6.11783 9.90475 5.5 9.02317 5.5 8.00002C5.5 6.62152 6.6215 5.50002 8 5.50002C9.3785 5.50002 10.5 6.62152 10.5 8.00002C10.5 8.14903 10.4869 8.29504 10.4618 8.43696L14.9512 11.4306C15.1296 11.0696 15.2808 10.6927 15.402 10.3026C15.4541 10.1349 15.3835 9.9534 15.2314 9.86561Z"/>
	<path fill="#FFFFFF" d="M8 20V8L17 14L8 20Z"/>
</svg>