<svg viewBox="0 0 24 18" xmlns="http://www.w3.org/2000/svg">
	<path d="M1.51828 7.5C0.690469 7.5 0 8.17172 0 9C0 9.82828 0.690469 10.5 1.51828 10.5C1.91611 10.5 2.29764 10.342 2.57894 10.0607C2.86025 9.77936 3.01828 9.39782 3.01828 9C3.01828 8.60218 2.86025 8.22064 2.57894 7.93934C2.29764 7.65804 1.91611 7.5 1.51828 7.5ZM1.51828 0C0.690469 0 0 0.671719 0 1.5C0 2.32828 0.690469 3 1.51828 3C1.91611 3 2.29764 2.84196 2.57894 2.56066C2.86025 2.27936 3.01828 1.89782 3.01828 1.5C3.01828 1.10218 2.86025 0.720644 2.57894 0.43934C2.29764 0.158035 1.91611 0 1.51828 0ZM1.51828 15C0.690469 15 0 15.6717 0 16.5C0 17.3283 0.690469 18 1.51828 18C1.91611 18 2.29764 17.842 2.57894 17.5607C2.86025 17.2794 3.01828 16.8978 3.01828 16.5C3.01828 16.1022 2.86025 15.7206 2.57894 15.4393C2.29764 15.158 1.91611 15 1.51828 15ZM23.625 0.75H6.375C6.27554 0.75 6.18016 0.789509 6.10983 0.859835C6.03951 0.930161 6 1.02554 6 1.125V1.875C6 1.97446 6.03951 2.06984 6.10983 2.14016C6.18016 2.21049 6.27554 2.25 6.375 2.25H23.625C23.7245 2.25 23.8198 2.21049 23.8902 2.14016C23.9605 2.06984 24 1.97446 24 1.875V1.125C24 1.02554 23.9605 0.930161 23.8902 0.859835C23.8198 0.789509 23.7245 0.75 23.625 0.75ZM23.625 8.25H6.375C6.27554 8.25 6.18016 8.28951 6.10983 8.35983C6.03951 8.43016 6 8.52554 6 8.625V9.375C6 9.47446 6.03951 9.56984 6.10983 9.64017C6.18016 9.71049 6.27554 9.75 6.375 9.75H23.625C23.7245 9.75 23.8198 9.71049 23.8902 9.64017C23.9605 9.56984 24 9.47446 24 9.375V8.625C24 8.52554 23.9605 8.43016 23.8902 8.35983C23.8198 8.28951 23.7245 8.25 23.625 8.25ZM23.625 15.75H6.375C6.27554 15.75 6.18016 15.7895 6.10983 15.8598C6.03951 15.9302 6 16.0255 6 16.125V16.875C6 16.9745 6.03951 17.0698 6.10983 17.1402C6.18016 17.2105 6.27554 17.25 6.375 17.25H23.625C23.7245 17.25 23.8198 17.2105 23.8902 17.1402C23.9605 17.0698 24 16.9745 24 16.875V16.125C24 16.0255 23.9605 15.9302 23.8902 15.8598C23.8198 15.7895 23.7245 15.75 23.625 15.75Z" fill="#DFDFDF"/>
</svg>