<svg viewBox="0 0 21 24" xmlns="http://www.w3.org/2000/svg">
	<path d="M14.7 13.5C13.3547 13.5 12.7078 14.25 10.5 14.25C8.29219 14.25 7.65 13.5 6.3 13.5C2.82187 13.5 0 16.3219 0 19.8V21.75C0 22.9922 1.00781 24 2.25 24H18.75C19.9922 24 21 22.9922 21 21.75V19.8C21 16.3219 18.1781 13.5 14.7 13.5ZM19.5 21.75C19.5 22.1625 19.1625 22.5 18.75 22.5H2.25C1.8375 22.5 1.5 22.1625 1.5 21.75V19.8C1.5 17.1516 3.65156 15 6.3 15C7.21875 15 8.13281 15.75 10.5 15.75C12.8625 15.75 13.7812 15 14.7 15C17.3484 15 19.5 17.1516 19.5 19.8V21.75ZM10.5 12C13.8141 12 16.5 9.31406 16.5 6C16.5 2.68594 13.8141 0 10.5 0C7.18594 0 4.5 2.68594 4.5 6C4.5 9.31406 7.18594 12 10.5 12ZM10.5 1.5C12.9797 1.5 15 3.52031 15 6C15 8.47969 12.9797 10.5 10.5 10.5C8.02031 10.5 6 8.47969 6 6C6 3.52031 8.02031 1.5 10.5 1.5Z" fill="#DFDFDF"/>
</svg>
